<?xml version="1.0" encoding="utf-8"?>
<!-- Generator: Adobe Illustrator 23.0.3, SVG Export Plug-In . SVG Version: 6.00 Build 0)  -->
<svg version="1.1" id="Layer_1" xmlns="http://www.w3.org/2000/svg" xmlns:xlink="http://www.w3.org/1999/xlink" x="0px" y="0px"
	 viewBox="0 0 685 261" style="enable-background:new 0 0 685 261;" xml:space="preserve">
<style type="text/css">
	.st0{fill:#294270;}
	.st1{fill:#F0801A;}
</style>
<g>
	<path class="st0" d="M79.5,55.57h-9.75v73.73h9.75v6.7H62.04V48.87H79.5V55.57z"/>
	<path class="st0" d="M131.58,122.25h-8.16v-53.8l-16.8,6.39v-7.45l24.3-9.35h0.66V122.25z"/>
	<path class="st0" d="M180,120.35c0,1.38-0.17,2.83-0.51,4.34c-0.34,1.51-0.84,3.01-1.5,4.5s-1.46,2.9-2.4,4.26
		c-0.94,1.35-2.03,2.56-3.26,3.62l-5.07-2.78c1.41-2.06,2.41-4.25,3-6.57c0.59-2.32,0.88-4.73,0.88-7.23v-7.89H180V120.35z"/>
	<path class="st0" d="M252.89,122.25h-42.07v-5.86l21.03-23.37c1.88-2.09,3.45-3.94,4.72-5.56c1.26-1.62,2.28-3.11,3.04-4.48
		c0.76-1.37,1.31-2.66,1.63-3.88c0.32-1.22,0.49-2.48,0.49-3.77c0-1.59-0.26-3.08-0.77-4.48c-0.51-1.4-1.26-2.61-2.25-3.64
		c-0.99-1.03-2.18-1.84-3.57-2.45c-1.4-0.6-2.98-0.9-4.74-0.9c-2.15,0-4.01,0.31-5.58,0.93c-1.57,0.62-2.88,1.49-3.92,2.62
		c-1.04,1.13-1.82,2.51-2.34,4.12c-0.51,1.62-0.77,3.42-0.77,5.42h-8.2c0-2.7,0.47-5.25,1.41-7.65c0.94-2.4,2.3-4.49,4.08-6.28
		c1.78-1.79,3.95-3.22,6.53-4.28c2.57-1.06,5.5-1.59,8.8-1.59c3.03,0,5.75,0.45,8.18,1.34c2.43,0.9,4.48,2.14,6.15,3.73
		c1.68,1.59,2.96,3.47,3.86,5.64c0.9,2.18,1.34,4.54,1.34,7.1c0,1.91-0.32,3.8-0.97,5.67c-0.65,1.87-1.52,3.71-2.62,5.53
		c-1.1,1.82-2.38,3.62-3.84,5.4c-1.46,1.78-2.99,3.55-4.61,5.31l-17.24,18.7h32.23V122.25z"/>
	<path class="st0" d="M288.39,120.35c0,1.38-0.17,2.83-0.51,4.34c-0.34,1.51-0.84,3.01-1.5,4.5c-0.66,1.48-1.46,2.9-2.4,4.26
		c-0.94,1.35-2.03,2.56-3.26,3.62l-5.07-2.78c1.41-2.06,2.41-4.25,3-6.57c0.59-2.32,0.88-4.73,0.88-7.23v-7.89h8.86V120.35z"/>
	<path class="st0" d="M331.42,86.22h5.82c2.06,0,3.87-0.28,5.45-0.84c1.57-0.56,2.9-1.32,3.97-2.29c1.07-0.97,1.89-2.13,2.45-3.48
		c0.56-1.35,0.84-2.84,0.84-4.45c0-3.73-0.96-6.55-2.87-8.44c-1.91-1.9-4.7-2.84-8.38-2.84c-1.73,0-3.31,0.26-4.74,0.77
		c-1.43,0.51-2.65,1.26-3.66,2.23c-1.01,0.97-1.8,2.13-2.36,3.48c-0.56,1.35-0.84,2.87-0.84,4.54h-8.2c0-2.44,0.48-4.74,1.43-6.9
		c0.96-2.16,2.3-4.04,4.03-5.64c1.73-1.6,3.81-2.87,6.24-3.79c2.42-0.93,5.12-1.39,8.09-1.39c2.88,0,5.51,0.39,7.89,1.17
		c2.38,0.78,4.42,1.93,6.13,3.46c1.71,1.53,3.03,3.42,3.97,5.69s1.41,4.88,1.41,7.85c0,1.23-0.19,2.51-0.57,3.84
		s-0.97,2.61-1.76,3.86c-0.79,1.25-1.82,2.43-3.06,3.53c-1.25,1.1-2.74,2.02-4.48,2.76c2.09,0.68,3.83,1.56,5.22,2.65
		c1.4,1.09,2.51,2.31,3.35,3.66c0.84,1.35,1.43,2.78,1.76,4.28c0.34,1.5,0.51,2.98,0.51,4.45c0,3-0.51,5.66-1.54,7.98
		s-2.46,4.28-4.28,5.89c-1.82,1.6-3.98,2.82-6.46,3.66c-2.48,0.84-5.17,1.26-8.05,1.26c-2.82,0-5.48-0.4-7.96-1.19
		c-2.48-0.79-4.64-1.95-6.46-3.48c-1.82-1.53-3.27-3.4-4.34-5.6c-1.07-2.2-1.61-4.72-1.61-7.54h8.16c0,1.68,0.29,3.2,0.86,4.59
		c0.57,1.38,1.39,2.56,2.45,3.53c1.06,0.97,2.34,1.72,3.86,2.25c1.51,0.53,3.2,0.79,5.05,0.79c1.85,0,3.53-0.24,5.03-0.73
		c1.5-0.49,2.78-1.23,3.84-2.23c1.06-1,1.87-2.24,2.45-3.73c0.57-1.48,0.86-3.24,0.86-5.27c0-2-0.33-3.73-0.99-5.18
		s-1.59-2.67-2.78-3.64c-1.19-0.97-2.63-1.69-4.32-2.16s-3.55-0.71-5.58-0.71h-5.82V86.22z"/>
	<path class="st0" d="M396.77,120.35c0,1.38-0.17,2.83-0.51,4.34c-0.34,1.51-0.84,3.01-1.5,4.5c-0.66,1.48-1.46,2.9-2.4,4.26
		c-0.94,1.35-2.03,2.56-3.26,3.62l-5.07-2.78c1.41-2.06,2.41-4.25,3-6.57c0.59-2.32,0.88-4.73,0.88-7.23v-7.89h8.86V120.35z"/>
	<path class="st0" d="M463.36,100.68h8.95v6.66h-8.95v14.9h-8.16v-14.9h-29.28v-4.81l28.75-44.49h8.69V100.68z M434.96,100.68h20.24
		V68.89l-1.32,2.47L434.96,100.68z"/>
	<path class="st0" d="M505.16,120.35c0,1.38-0.17,2.83-0.51,4.34c-0.34,1.51-0.84,3.01-1.5,4.5c-0.66,1.48-1.46,2.9-2.4,4.26
		c-0.94,1.35-2.03,2.56-3.26,3.62l-5.07-2.78c1.41-2.06,2.41-4.25,3-6.57c0.59-2.32,0.88-4.73,0.88-7.23v-7.89h8.86V120.35z"/>
	<path class="st0" d="M603.05,48.87h17.51V136h-17.51v-6.7h9.79V55.57h-9.79V48.87z"/>
	<g>
		<path class="st1" d="M329.58,215.91c-99.89,0-206.82-22.73-207.08-72.9l5-0.03c0.07,14.35,10.94,34.76,62.27,50.48
			c37.18,11.39,87.42,17.57,141.5,17.44c58.36-0.15,112.85-7.57,153.44-20.89C516.32,179.65,554,160.73,554,129.5h5
			c0,58.96-118.04,86.12-227.71,86.41C330.72,215.91,330.14,215.91,329.58,215.91z"/>
	</g>
	<g>
		<path class="st1" d="M589,125h-60V56h60V125z M534,120h50V61h-50V120z"/>
	</g>
</g>
</svg>
